<mxfile host="app.diagrams.net" modified="2021-11-11T06:48:45.006Z" agent="5.0 (Macintosh; Intel Mac OS X 10_15_7) AppleWebKit/537.36 (KHTML, like Gecko) Chrome/95.0.4638.69 Safari/537.36" etag="GwUDFDy52Q3qNmIr1_WH" version="15.7.3" type="github">
  <diagram name="Page-1" id="74b105a0-9070-1c63-61bc-23e55f88626e">
    <mxGraphModel dx="2037" dy="1016" grid="1" gridSize="10" guides="1" tooltips="1" connect="1" arrows="1" fold="1" page="1" pageScale="1.5" pageWidth="1169" pageHeight="826" background="none" math="0" shadow="0">
      <root>
        <mxCell id="0" style=";html=1;" />
        <mxCell id="1" style=";html=1;" parent="0" />
        <mxCell id="aSTpyF8MrHN_0_ikTAj--16" value="" style="rounded=1;whiteSpace=wrap;html=1;fontSize=16;fillColor=#f5f5f5;strokeColor=#666666;fontColor=#333333;" parent="1" vertex="1">
          <mxGeometry x="260" y="610" width="540" height="267.5" as="geometry" />
        </mxCell>
        <mxCell id="10b056a9c633e61c-4" value="" style="strokeWidth=2;dashed=0;align=center;fontSize=12;shape=rect;verticalLabelPosition=bottom;verticalAlign=top;fillColor=#c0f5a9" parent="1" vertex="1">
          <mxGeometry x="271" y="735" width="208" height="60" as="geometry" />
        </mxCell>
        <mxCell id="10b056a9c633e61c-30" value="Service Mesh 架构图" style="text;strokeColor=none;fillColor=none;html=1;fontSize=24;fontStyle=1;verticalAlign=middle;align=center;" parent="1" vertex="1">
          <mxGeometry x="70" y="50" width="1590" height="40" as="geometry" />
        </mxCell>
        <mxCell id="aSTpyF8MrHN_0_ikTAj--2" value="&lt;span style=&quot;color: rgb(0 , 0 , 0) ; font-family: &amp;#34;helvetica&amp;#34; ; font-style: normal ; font-weight: 400 ; letter-spacing: normal ; text-align: center ; text-indent: 0px ; text-transform: none ; word-spacing: 0px ; display: inline ; float: none ; background-color: rgb(194 , 255 , 206)&quot;&gt;&lt;font style=&quot;font-size: 15px&quot;&gt;AppProvider&lt;/font&gt;&lt;/span&gt;" style="text;html=1;align=center;verticalAlign=middle;whiteSpace=wrap;rounded=0;fontSize=16;" parent="1" vertex="1">
          <mxGeometry x="271" y="735" width="208" height="30" as="geometry" />
        </mxCell>
        <mxCell id="aSTpyF8MrHN_0_ikTAj--3" value="&lt;font style=&quot;font-size: 15px&quot;&gt;gRPC Client&lt;/font&gt;" style="rounded=0;whiteSpace=wrap;html=1;fontSize=16;fillColor=#f8cecc;strokeColor=#b85450;" parent="1" vertex="1">
          <mxGeometry x="271" y="765" width="98" height="30" as="geometry" />
        </mxCell>
        <mxCell id="aSTpyF8MrHN_0_ikTAj--10" style="edgeStyle=orthogonalEdgeStyle;rounded=0;orthogonalLoop=1;jettySize=auto;html=1;fontSize=16;entryX=0;entryY=0.5;entryDx=0;entryDy=0;dashed=1;" parent="1" target="aSTpyF8MrHN_0_ikTAj--8" edge="1">
          <mxGeometry relative="1" as="geometry">
            <mxPoint x="571" y="779" as="targetPoint" />
            <mxPoint x="481" y="773" as="sourcePoint" />
          </mxGeometry>
        </mxCell>
        <mxCell id="aSTpyF8MrHN_0_ikTAj--4" value="&lt;font style=&quot;font-size: 15px&quot;&gt;gRPC Server&lt;/font&gt;" style="rounded=0;whiteSpace=wrap;html=1;fontSize=16;fillColor=#f8cecc;strokeColor=#b85450;" parent="1" vertex="1">
          <mxGeometry x="369" y="765" width="110" height="30" as="geometry" />
        </mxCell>
        <mxCell id="aSTpyF8MrHN_0_ikTAj--5" value="" style="strokeWidth=2;dashed=0;align=center;fontSize=12;shape=rect;verticalLabelPosition=bottom;verticalAlign=top;fillColor=#c0f5a9" parent="1" vertex="1">
          <mxGeometry x="572" y="728" width="210" height="90" as="geometry" />
        </mxCell>
        <mxCell id="aSTpyF8MrHN_0_ikTAj--6" value="&lt;span style=&quot;color: rgb(0 , 0 , 0) ; font-family: &amp;#34;helvetica&amp;#34; ; font-style: normal ; font-weight: 400 ; letter-spacing: normal ; text-align: center ; text-indent: 0px ; text-transform: none ; word-spacing: 0px ; display: inline ; float: none ; background-color: rgb(189 , 255 , 191)&quot;&gt;&lt;font style=&quot;font-size: 15px&quot;&gt;SideCar&lt;/font&gt;&lt;/span&gt;" style="text;html=1;align=center;verticalAlign=middle;whiteSpace=wrap;rounded=0;fontSize=16;" parent="1" vertex="1">
          <mxGeometry x="572" y="728" width="208" height="30" as="geometry" />
        </mxCell>
        <mxCell id="aSTpyF8MrHN_0_ikTAj--13" style="edgeStyle=orthogonalEdgeStyle;rounded=0;orthogonalLoop=1;jettySize=auto;html=1;exitX=0;exitY=0.75;exitDx=0;exitDy=0;fontSize=16;dashed=1;" parent="1" source="aSTpyF8MrHN_0_ikTAj--8" target="aSTpyF8MrHN_0_ikTAj--4" edge="1">
          <mxGeometry relative="1" as="geometry" />
        </mxCell>
        <mxCell id="aSTpyF8MrHN_0_ikTAj--43" style="edgeStyle=orthogonalEdgeStyle;rounded=0;orthogonalLoop=1;jettySize=auto;html=1;dashed=1;fontSize=15;curved=1;entryX=0.006;entryY=0.638;entryDx=0;entryDy=0;entryPerimeter=0;" parent="1" target="aSTpyF8MrHN_0_ikTAj--15" edge="1">
          <mxGeometry relative="1" as="geometry">
            <mxPoint x="540" y="460" as="targetPoint" />
            <mxPoint x="570" y="808" as="sourcePoint" />
            <Array as="points">
              <mxPoint x="370" y="808" />
              <mxPoint x="370" y="201" />
            </Array>
          </mxGeometry>
        </mxCell>
        <mxCell id="aSTpyF8MrHN_0_ikTAj--8" value="&lt;div class=&quot;lake-content&quot;&gt;&lt;div class=&quot;lake-content&quot;&gt;&lt;span class=&quot;ne-text&quot;&gt;Multi Runtime&lt;/span&gt;&lt;/div&gt;&lt;/div&gt;" style="rounded=0;whiteSpace=wrap;html=1;fontSize=16;fillColor=#f8cecc;strokeColor=#b85450;" parent="1" vertex="1">
          <mxGeometry x="572" y="758" width="208" height="30" as="geometry" />
        </mxCell>
        <mxCell id="aSTpyF8MrHN_0_ikTAj--9" value="&lt;font style=&quot;font-size: 15px&quot;&gt;数据面代理&lt;/font&gt;" style="rounded=0;whiteSpace=wrap;html=1;fontSize=16;fillColor=#d5e8d4;strokeColor=#82b366;" parent="1" vertex="1">
          <mxGeometry x="572" y="788" width="209" height="31" as="geometry" />
        </mxCell>
        <mxCell id="aSTpyF8MrHN_0_ikTAj--11" value="&lt;font style=&quot;font-size: 12px&quot;&gt;调用&lt;/font&gt;" style="text;html=1;align=center;verticalAlign=middle;resizable=0;points=[];autosize=1;fontSize=16;" parent="1" vertex="1">
          <mxGeometry x="505" y="750" width="40" height="30" as="geometry" />
        </mxCell>
        <mxCell id="aSTpyF8MrHN_0_ikTAj--46" style="edgeStyle=orthogonalEdgeStyle;curved=1;rounded=0;orthogonalLoop=1;jettySize=auto;html=1;exitX=0.5;exitY=1;exitDx=0;exitDy=0;dashed=1;fontSize=15;" parent="1" source="aSTpyF8MrHN_0_ikTAj--15" target="aSTpyF8MrHN_0_ikTAj--44" edge="1">
          <mxGeometry relative="1" as="geometry" />
        </mxCell>
        <mxCell id="aSTpyF8MrHN_0_ikTAj--49" value="监听/事件/通知" style="edgeLabel;html=1;align=center;verticalAlign=middle;resizable=0;points=[];fontSize=15;" parent="aSTpyF8MrHN_0_ikTAj--46" vertex="1" connectable="0">
          <mxGeometry x="-0.3267" y="5" relative="1" as="geometry">
            <mxPoint x="48" y="23" as="offset" />
          </mxGeometry>
        </mxCell>
        <mxCell id="aSTpyF8MrHN_0_ikTAj--15" value="注册中心&lt;br&gt;（&lt;font style=&quot;font-size: 12px&quot;&gt;配置/事件中心&lt;/font&gt;）" style="ellipse;whiteSpace=wrap;html=1;fontSize=16;" parent="1" vertex="1">
          <mxGeometry x="792" y="150" width="170" height="80" as="geometry" />
        </mxCell>
        <mxCell id="aSTpyF8MrHN_0_ikTAj--17" value="&lt;font color=&quot;#2b24ff&quot;&gt;Pod&lt;/font&gt;" style="text;html=1;strokeColor=none;fillColor=none;align=center;verticalAlign=middle;whiteSpace=wrap;rounded=0;dashed=1;fontSize=16;" parent="1" vertex="1">
          <mxGeometry x="290" y="630" width="50" height="20" as="geometry" />
        </mxCell>
        <mxCell id="aSTpyF8MrHN_0_ikTAj--20" value="" style="rounded=1;whiteSpace=wrap;html=1;fontSize=16;fillColor=#f5f5f5;strokeColor=#666666;fontColor=#333333;" parent="1" vertex="1">
          <mxGeometry x="950" y="609.25" width="540" height="267.5" as="geometry" />
        </mxCell>
        <mxCell id="aSTpyF8MrHN_0_ikTAj--21" value="" style="strokeWidth=2;dashed=0;align=center;fontSize=12;shape=rect;verticalLabelPosition=bottom;verticalAlign=top;fillColor=#c0f5a9" parent="1" vertex="1">
          <mxGeometry x="961" y="734.25" width="208" height="60" as="geometry" />
        </mxCell>
        <mxCell id="aSTpyF8MrHN_0_ikTAj--22" value="&lt;span style=&quot;color: rgb(0 , 0 , 0) ; font-family: &amp;#34;helvetica&amp;#34; ; font-style: normal ; font-weight: 400 ; letter-spacing: normal ; text-align: center ; text-indent: 0px ; text-transform: none ; word-spacing: 0px ; display: inline ; float: none ; background-color: rgb(194 , 255 , 206)&quot;&gt;&lt;font style=&quot;font-size: 15px&quot;&gt;AppConsumer&lt;/font&gt;&lt;/span&gt;" style="text;html=1;align=center;verticalAlign=middle;whiteSpace=wrap;rounded=0;fontSize=16;" parent="1" vertex="1">
          <mxGeometry x="961" y="734.25" width="208" height="30" as="geometry" />
        </mxCell>
        <mxCell id="aSTpyF8MrHN_0_ikTAj--23" value="&lt;font style=&quot;font-size: 15px&quot;&gt;gRPC Client&lt;/font&gt;" style="rounded=0;whiteSpace=wrap;html=1;fontSize=16;fillColor=#f8cecc;strokeColor=#b85450;" parent="1" vertex="1">
          <mxGeometry x="961" y="764.25" width="98" height="30" as="geometry" />
        </mxCell>
        <mxCell id="aSTpyF8MrHN_0_ikTAj--24" style="edgeStyle=orthogonalEdgeStyle;rounded=0;orthogonalLoop=1;jettySize=auto;html=1;fontSize=16;entryX=0;entryY=0.5;entryDx=0;entryDy=0;dashed=1;" parent="1" target="aSTpyF8MrHN_0_ikTAj--30" edge="1">
          <mxGeometry relative="1" as="geometry">
            <mxPoint x="1261" y="778.25" as="targetPoint" />
            <mxPoint x="1171" y="772.25" as="sourcePoint" />
          </mxGeometry>
        </mxCell>
        <mxCell id="aSTpyF8MrHN_0_ikTAj--25" value="&lt;font style=&quot;font-size: 15px&quot;&gt;gRPC Server&lt;/font&gt;" style="rounded=0;whiteSpace=wrap;html=1;fontSize=16;fillColor=#f8cecc;strokeColor=#b85450;" parent="1" vertex="1">
          <mxGeometry x="1059" y="764.25" width="110" height="30" as="geometry" />
        </mxCell>
        <mxCell id="aSTpyF8MrHN_0_ikTAj--26" value="" style="strokeWidth=2;dashed=0;align=center;fontSize=12;shape=rect;verticalLabelPosition=bottom;verticalAlign=top;fillColor=#c0f5a9" parent="1" vertex="1">
          <mxGeometry x="1262" y="727.25" width="210" height="90" as="geometry" />
        </mxCell>
        <mxCell id="aSTpyF8MrHN_0_ikTAj--27" value="&lt;span style=&quot;color: rgb(0 , 0 , 0) ; font-family: &amp;#34;helvetica&amp;#34; ; font-style: normal ; font-weight: 400 ; letter-spacing: normal ; text-align: center ; text-indent: 0px ; text-transform: none ; word-spacing: 0px ; display: inline ; float: none ; background-color: rgb(189 , 255 , 191)&quot;&gt;&lt;font style=&quot;font-size: 15px&quot;&gt;SideCar&lt;/font&gt;&lt;/span&gt;" style="text;html=1;align=center;verticalAlign=middle;whiteSpace=wrap;rounded=0;fontSize=16;" parent="1" vertex="1">
          <mxGeometry x="1262" y="727.25" width="208" height="30" as="geometry" />
        </mxCell>
        <mxCell id="aSTpyF8MrHN_0_ikTAj--28" style="edgeStyle=orthogonalEdgeStyle;rounded=0;orthogonalLoop=1;jettySize=auto;html=1;exitX=0;exitY=0.75;exitDx=0;exitDy=0;fontSize=16;dashed=1;" parent="1" source="aSTpyF8MrHN_0_ikTAj--30" target="aSTpyF8MrHN_0_ikTAj--25" edge="1">
          <mxGeometry relative="1" as="geometry" />
        </mxCell>
        <mxCell id="aSTpyF8MrHN_0_ikTAj--29" value="&lt;font style=&quot;font-size: 12px&quot;&gt;回调&lt;/font&gt;" style="edgeLabel;html=1;align=center;verticalAlign=middle;resizable=0;points=[];fontSize=16;" parent="aSTpyF8MrHN_0_ikTAj--28" vertex="1" connectable="0">
          <mxGeometry x="-0.893" y="3" relative="1" as="geometry">
            <mxPoint x="-46" y="6.5" as="offset" />
          </mxGeometry>
        </mxCell>
        <mxCell id="aSTpyF8MrHN_0_ikTAj--30" value="&lt;div class=&quot;lake-content&quot;&gt;&lt;div class=&quot;lake-content&quot;&gt;&lt;span class=&quot;ne-text&quot;&gt;Multi Runtime&lt;/span&gt;&lt;/div&gt;&lt;/div&gt;" style="rounded=0;whiteSpace=wrap;html=1;fontSize=16;fillColor=#f8cecc;strokeColor=#b85450;" parent="1" vertex="1">
          <mxGeometry x="1262" y="757.25" width="208" height="30" as="geometry" />
        </mxCell>
        <mxCell id="aSTpyF8MrHN_0_ikTAj--55" style="edgeStyle=orthogonalEdgeStyle;curved=1;rounded=0;orthogonalLoop=1;jettySize=auto;html=1;exitX=1;exitY=0.5;exitDx=0;exitDy=0;entryX=1;entryY=0.5;entryDx=0;entryDy=0;dashed=1;fontSize=15;" parent="1" source="aSTpyF8MrHN_0_ikTAj--31" target="aSTpyF8MrHN_0_ikTAj--15" edge="1">
          <mxGeometry relative="1" as="geometry">
            <Array as="points">
              <mxPoint x="1510" y="803" />
              <mxPoint x="1510" y="190" />
            </Array>
          </mxGeometry>
        </mxCell>
        <mxCell id="aSTpyF8MrHN_0_ikTAj--56" value="注册" style="edgeLabel;html=1;align=center;verticalAlign=middle;resizable=0;points=[];fontSize=15;" parent="aSTpyF8MrHN_0_ikTAj--55" vertex="1" connectable="0">
          <mxGeometry x="-0.0811" y="97" relative="1" as="geometry">
            <mxPoint x="57" y="169.2" as="offset" />
          </mxGeometry>
        </mxCell>
        <mxCell id="aSTpyF8MrHN_0_ikTAj--57" style="edgeStyle=orthogonalEdgeStyle;curved=1;rounded=0;orthogonalLoop=1;jettySize=auto;html=1;exitX=0.5;exitY=1;exitDx=0;exitDy=0;entryX=0.5;entryY=1;entryDx=0;entryDy=0;dashed=1;fontSize=15;" parent="1" target="aSTpyF8MrHN_0_ikTAj--9" edge="1">
          <mxGeometry relative="1" as="geometry">
            <Array as="points">
              <mxPoint x="1280" y="922" />
              <mxPoint x="677" y="922" />
            </Array>
            <mxPoint x="1280" y="810" as="sourcePoint" />
            <mxPoint x="590" y="810.75" as="targetPoint" />
          </mxGeometry>
        </mxCell>
        <mxCell id="aSTpyF8MrHN_0_ikTAj--58" value="调用" style="edgeLabel;html=1;align=center;verticalAlign=middle;resizable=0;points=[];fontSize=15;" parent="aSTpyF8MrHN_0_ikTAj--57" vertex="1" connectable="0">
          <mxGeometry x="-0.0156" y="1" relative="1" as="geometry">
            <mxPoint x="-99" y="-23" as="offset" />
          </mxGeometry>
        </mxCell>
        <mxCell id="aSTpyF8MrHN_0_ikTAj--31" value="&lt;font style=&quot;font-size: 15px&quot;&gt;数据面&lt;br&gt;&lt;/font&gt;" style="rounded=0;whiteSpace=wrap;html=1;fontSize=16;fillColor=#d5e8d4;strokeColor=#82b366;" parent="1" vertex="1">
          <mxGeometry x="1262" y="787.25" width="209" height="31" as="geometry" />
        </mxCell>
        <mxCell id="aSTpyF8MrHN_0_ikTAj--32" value="&lt;font style=&quot;font-size: 12px&quot;&gt;调用&lt;/font&gt;" style="text;html=1;align=center;verticalAlign=middle;resizable=0;points=[];autosize=1;fontSize=16;" parent="1" vertex="1">
          <mxGeometry x="1191" y="749.25" width="40" height="30" as="geometry" />
        </mxCell>
        <mxCell id="aSTpyF8MrHN_0_ikTAj--33" value="&lt;font color=&quot;#2b24ff&quot;&gt;Pod&lt;/font&gt;" style="text;html=1;strokeColor=none;fillColor=none;align=center;verticalAlign=middle;whiteSpace=wrap;rounded=0;dashed=1;fontSize=16;" parent="1" vertex="1">
          <mxGeometry x="980" y="629.25" width="40" height="20" as="geometry" />
        </mxCell>
        <mxCell id="aSTpyF8MrHN_0_ikTAj--36" style="edgeStyle=orthogonalEdgeStyle;rounded=0;orthogonalLoop=1;jettySize=auto;html=1;dashed=1;fontSize=16;" parent="1" source="aSTpyF8MrHN_0_ikTAj--35" target="aSTpyF8MrHN_0_ikTAj--9" edge="1">
          <mxGeometry relative="1" as="geometry">
            <Array as="points">
              <mxPoint x="830" y="624" />
              <mxPoint x="677" y="624" />
            </Array>
          </mxGeometry>
        </mxCell>
        <mxCell id="aSTpyF8MrHN_0_ikTAj--37" value="xDS" style="edgeLabel;html=1;align=center;verticalAlign=middle;resizable=0;points=[];fontSize=15;" parent="aSTpyF8MrHN_0_ikTAj--36" vertex="1" connectable="0">
          <mxGeometry x="-0.5813" y="2" relative="1" as="geometry">
            <mxPoint x="-20" y="-46" as="offset" />
          </mxGeometry>
        </mxCell>
        <mxCell id="aSTpyF8MrHN_0_ikTAj--40" style="edgeStyle=orthogonalEdgeStyle;rounded=0;orthogonalLoop=1;jettySize=auto;html=1;exitX=0.75;exitY=1;exitDx=0;exitDy=0;dashed=1;fontSize=16;" parent="1" source="aSTpyF8MrHN_0_ikTAj--35" target="aSTpyF8MrHN_0_ikTAj--31" edge="1">
          <mxGeometry relative="1" as="geometry">
            <Array as="points">
              <mxPoint x="915" y="624" />
              <mxPoint x="1367" y="624" />
            </Array>
          </mxGeometry>
        </mxCell>
        <mxCell id="aSTpyF8MrHN_0_ikTAj--41" value="&lt;font style=&quot;font-size: 15px&quot;&gt;xDS&lt;/font&gt;" style="edgeLabel;html=1;align=center;verticalAlign=middle;resizable=0;points=[];fontSize=16;" parent="aSTpyF8MrHN_0_ikTAj--40" vertex="1" connectable="0">
          <mxGeometry x="-0.7693" y="1" relative="1" as="geometry">
            <mxPoint x="24" y="-26" as="offset" />
          </mxGeometry>
        </mxCell>
        <mxCell id="aSTpyF8MrHN_0_ikTAj--35" value="控制面（Istio）" style="shape=parallelogram;perimeter=parallelogramPerimeter;whiteSpace=wrap;html=1;fixedSize=1;dashed=1;fontSize=16;fillColor=#b0e3e6;strokeColor=#0e8088;" parent="1" vertex="1">
          <mxGeometry x="767" y="480" width="220" height="60" as="geometry" />
        </mxCell>
        <mxCell id="aSTpyF8MrHN_0_ikTAj--50" value="" style="edgeStyle=orthogonalEdgeStyle;curved=1;rounded=0;orthogonalLoop=1;jettySize=auto;html=1;exitX=0.5;exitY=1;exitDx=0;exitDy=0;entryX=0.5;entryY=0;entryDx=0;entryDy=0;dashed=1;fontSize=15;" parent="1" source="aSTpyF8MrHN_0_ikTAj--44" target="aSTpyF8MrHN_0_ikTAj--35" edge="1">
          <mxGeometry y="23" relative="1" as="geometry">
            <mxPoint as="offset" />
          </mxGeometry>
        </mxCell>
        <mxCell id="aSTpyF8MrHN_0_ikTAj--44" value="适配器服务" style="rounded=1;whiteSpace=wrap;html=1;dashed=1;fontSize=15;strokeColor=#b85450;fillColor=#F88695;" parent="1" vertex="1">
          <mxGeometry x="797" y="340" width="160" height="60" as="geometry" />
        </mxCell>
        <mxCell id="aSTpyF8MrHN_0_ikTAj--45" value="注册" style="text;html=1;align=center;verticalAlign=middle;resizable=0;points=[];autosize=1;fontSize=15;" parent="1" vertex="1">
          <mxGeometry x="379" y="440" width="50" height="20" as="geometry" />
        </mxCell>
        <mxCell id="aSTpyF8MrHN_0_ikTAj--53" value="&lt;font style=&quot;font-size: 12px&quot;&gt;回调&lt;/font&gt;" style="text;html=1;align=center;verticalAlign=middle;resizable=0;points=[];autosize=1;fontSize=16;" parent="1" vertex="1">
          <mxGeometry x="505" y="775" width="40" height="30" as="geometry" />
        </mxCell>
        <mxCell id="aSTpyF8MrHN_0_ikTAj--59" value="服务提供方" style="text;html=1;strokeColor=none;fillColor=none;align=center;verticalAlign=middle;whiteSpace=wrap;rounded=0;fontSize=15;" parent="1" vertex="1">
          <mxGeometry x="485" y="643" width="80" height="1" as="geometry" />
        </mxCell>
        <mxCell id="aSTpyF8MrHN_0_ikTAj--64" value="服务消费方" style="text;html=1;strokeColor=none;fillColor=none;align=center;verticalAlign=middle;whiteSpace=wrap;rounded=0;fontSize=15;" parent="1" vertex="1">
          <mxGeometry x="1160" y="650" width="80" height="1" as="geometry" />
        </mxCell>
        <mxCell id="iHkl3DCpKz06pREgvze8-1" value="适配" style="text;html=1;align=center;verticalAlign=middle;resizable=0;points=[];autosize=1;strokeColor=none;fillColor=none;" vertex="1" parent="1">
          <mxGeometry x="880" y="430" width="40" height="20" as="geometry" />
        </mxCell>
      </root>
    </mxGraphModel>
  </diagram>
</mxfile>
